<svg id="Layer_3" enable-background="new 0 0 96 96" height="512" viewBox="0 0 96 96" width="512" xmlns="http://www.w3.org/2000/svg"><path d="m38 89v1c0 .83-.34 1.58-.88 2.12s-1.29.88-2.12.88c-1.66 0-3-1.34-3-3v-1z" fill="#ec2f53"/><path d="m47 81c1.1 0 2 .9 2 2 0 .55-.22 1.05-.59 1.41-.36.37-.86.59-1.41.59h-24c-1.1 0-2-.9-2-2 0-.55.22-1.05.59-1.41.36-.37.86-.59 1.41-.59h1 22z" fill="#f66533"/><path d="m47 85c1.1 0 2 .9 2 2 0 .55-.22 1.05-.59 1.41-.36.37-.86.59-1.41.59h-9-6-9c-1.1 0-2-.9-2-2 0-.55.22-1.05.59-1.41.36-.37.86-.59 1.41-.59z" fill="#f66533"/><path d="m67 44v4l9 13h-9v9c0 2.21-1.79 4-4 4h-16.94c-.02.02-.04.04-.06.06v6.94h-22v-6.94c-12.25-4.49-21-16.25-21-30.06h.03 63.94z" fill="#f9aa3d"/><path d="m49 43v1h-14v-15c7.73 0 14 6.27 14 14z" fill="#f66533"/><path d="m35 44h-14v-1c0-7.73 6.27-14 14-14z" fill="#f66533"/><path d="m54 43v1h-5v-1c0-7.73-6.27-14-14-14s-14 6.27-14 14v1h-5v-1c0-10.49 8.51-19 19-19s19 8.51 19 19z" fill="#f0f0f0"/><path d="m66.97 41.69c.01.43.03.87.03 1.31 0 .34-.01.67-.03 1h-12.97v-1c0-10.49-8.51-19-19-19s-19 8.51-19 19v1h-12.97c-.02-.33-.03-.66-.03-1 0-.44.02-.88.03-1.31l6.28-2.72c.43-2.77 1.31-5.4 2.55-7.81l-3.49-5.9c.48-.73 1-1.43 1.54-2.11l6.68 1.49c1.93-1.94 4.18-3.57 6.65-4.83l.64-6.82c.81-.3 1.64-.57 2.49-.8l4.52 5.14c1.34-.22 2.71-.33 4.11-.33s2.77.11 4.11.33l4.52-5.14c.85.23 1.68.5 2.49.8l.64 6.82c2.47 1.26 4.72 2.89 6.65 4.83l6.68-1.49c.54.68 1.06 1.38 1.54 2.11l-3.49 5.9c1.24 2.41 2.12 5.04 2.55 7.81z" fill="#63b2b9"/><path d="m93 31v10c-.78 0-1.56-.03-2.34-.08l-1.31-5.12c-1.91-.2-3.76-.57-5.56-1.07l-3.19 4.25c-1.47-.5-2.9-1.07-4.28-1.72l.74-5.22c-1.71-.92-3.33-1.97-4.86-3.15l-4.58 2.71c-1.15-.99-2.24-2.03-3.26-3.14l2.67-4.52c-1.3-1.54-2.46-3.19-3.47-4.95l-5.28.76c-.66-1.28-1.25-2.61-1.77-3.97l4.2-3.14c-.66-2-1.14-4.08-1.41-6.22l-5.17-1.33c-.05-.69-.09-1.39-.11-2.09h9.98.02c.52 15.55 13.3 28 28.98 28z" fill="#ec2f53"/><path d="m49 44v17l3 3v10h11c2.209 0 4-1.791 4-4v-9h9l-9-13-.03-4z" fill="#f66533"/><path d="m93 31c-15.477 0-29-12.523-29-28h29z" fill="#d2d2d2"/><path d="m93 2h-25c-.552 0-1 .447-1 1s.448 1 1 1h24v25.982c-14.715-.507-26.481-12.191-26.983-27.016-.019-.538-.478-.966-1.017-.966h-9.977c-.271 0-.529.109-.718.304s-.29.456-.282.727c.022.719.057 1.433.112 2.142.033.426.334.784.748.891l4.514 1.161c.256 1.71.639 3.399 1.141 5.04l-3.625 2.72c-.356.267-.493.737-.335 1.153.518 1.367 1.126 2.735 1.808 4.067.194.38.613.591 1.032.534l4.618-.66c.835 1.382 1.767 2.707 2.777 3.954l-2.316 3.92c-.225.381-.173.863.126 1.188 1.027 1.111 2.151 2.192 3.342 3.215.324.278.792.318 1.16.103l4.006-2.367c1.233.917 2.522 1.752 3.845 2.491l-.648 4.534c-.062.434.166.857.562 1.045 1.396.661 2.874 1.254 4.393 1.763.407.136.858-.004 1.117-.348l2.781-3.706c1.444.375 2.908.659 4.367.846l1.147 4.458c.108.421.476.724.909.749.884.051 1.668.076 2.396.076.552 0 1-.447 1-1v-38c0-.552-.448-1-1-1zm-1 37.985c-.179-.006-.362-.013-.551-.021l-1.135-4.411c-.104-.404-.447-.701-.862-.745-1.8-.193-3.615-.544-5.394-1.044-.396-.112-.823.032-1.07.362l-2.751 3.666c-.966-.344-1.912-.723-2.824-1.131l.641-4.484c.06-.417-.148-.827-.521-1.024-1.638-.87-3.226-1.898-4.721-3.057-.324-.251-.768-.277-1.121-.07l-3.962 2.342c-.743-.662-1.456-1.347-2.129-2.046l2.291-3.877c.217-.366.177-.83-.097-1.154-1.256-1.485-2.391-3.1-3.373-4.798-.205-.354-.607-.549-1.007-.489l-4.567.653c-.408-.834-.785-1.681-1.126-2.529l3.586-2.689c.343-.257.484-.705.35-1.112-.641-1.948-1.102-3.978-1.369-6.032-.053-.405-.347-.737-.743-.84l-4.463-1.148c-.006-.104-.012-.205-.017-.307h8c1.007 15.448 13.457 27.486 28.935 27.985z"/><circle cx="39" cy="40" r="1"/><circle cx="31" cy="40" r="1"/><circle cx="17" cy="49" r="1"/><circle cx="13" cy="49" r="1"/><circle cx="9" cy="49" r="1"/><path d="m21.382 66.15c-5.02-3.1-8.88-7.889-10.871-13.484-.186-.521-.759-.791-1.278-.607-.52.186-.792.757-.606 1.277 2.143 6.023 6.3 11.179 11.705 14.516.163.1.345.148.524.148.335 0 .663-.168.852-.475.29-.469.144-1.085-.326-1.375z"/><path d="m76 8c0-.553-.448-1-1-1s-1 .447-1 1c0 7.168 5.832 13 13 13 .552 0 1-.447 1-1s-.448-1-1-1c-6.065 0-11-4.934-11-11z"/><path d="m84.707 12.707 4.5-4.5c.391-.391.391-1.023 0-1.414s-1.023-.391-1.414 0l-4.5 4.5c-.391.391-.391 1.023 0 1.414.195.196.451.293.707.293s.512-.097.707-.293z"/><path d="m68 47.688s.018-5.591 0-6.039c-.015-.384-.284-.726-.636-.878l-5.778-2.497c-.433-2.448-1.206-4.823-2.303-7.075l3.211-5.426c.196-.331.185-.745-.029-1.065-.48-.719-1.002-1.433-1.594-2.182-.239-.301-.631-.441-1.003-.354l-6.144 1.378c-1.792-1.725-3.812-3.192-6.018-4.369l-.587-6.283c-.036-.383-.288-.711-.648-.845-.803-.298-1.643-.568-2.569-.827-.369-.105-.767.014-1.021.303l-4.162 4.73c-2.477-.342-4.962-.342-7.44 0l-4.162-4.73c-.254-.289-.651-.407-1.021-.303-.928.26-1.768.53-2.569.827-.36.134-.612.462-.648.845l-.587 6.283c-2.206 1.178-4.227 2.645-6.018 4.369l-6.144-1.378c-.374-.086-.764.054-1.002.354-.58.73-1.116 1.465-1.595 2.182-.213.32-.225.734-.029 1.064l3.212 5.428c-1.098 2.251-1.871 4.626-2.303 7.075l-5.778 2.497c-.353.152-.587.494-.602.878-.563 14.311 7.411 27.806 20.967 33.1v5.25c-1.654 0-3 1.346-3 3 0 .771.301 1.468.78 2-.48.532-.78 1.229-.78 2 0 1.654 1.346 3 3 3h8c0 2.206 1.794 4 4 4s4-1.794 4-4h8c1.654 0 3-1.346 3-3 0-.771-.301-1.468-.78-2 .48-.532.78-1.229.78-2 0-1.654-1.346-3-3-3v-5h16c2.757 0 5-2.243 5-5v-8h8c.372 0 .713-.206.886-.536.173-.329.148-.728-.063-1.033zm-63.99-5.332 5.698-2.463c.315-.137.539-.425.591-.765.406-2.612 1.229-5.14 2.446-7.514.157-.306.146-.67-.029-.965l-3.165-5.349c.241-.345.496-.691.761-1.04l6.057 1.358c.335.078.685-.026.927-.27 1.869-1.874 4.02-3.437 6.396-4.644.306-.155.511-.457.542-.799l.579-6.19c.392-.136.797-.266 1.222-.393l4.102 4.663c.226.258.572.386.908.327 2.629-.418 5.283-.418 7.909 0 .34.057.682-.069.908-.327l4.103-4.663c.424.127.83.257 1.222.393l.579 6.19c.032.342.237.644.542.799 2.375 1.207 4.526 2.77 6.396 4.644.242.244.593.348.927.27l6.057-1.358c.269.353.521.697.762 1.041l-3.165 5.347c-.175.296-.186.66-.029.966 1.217 2.374 2.04 4.902 2.445 7.514.053.34.276.628.591.765l5.698 2.463c.006.215.01.428.01.644h-11c0-11.028-8.972-20-20-20s-20 8.972-20 20h-11c0-.216.004-.429.01-.644zm29.99.644h-12c0-6.83 5.299-12.435 12-12.949zm2-12.949c6.702.514 12 6.119 12 12.949h-12zm-1-2.051c-8.271 0-15 6.729-15 15h-3c0-9.925 8.075-18 18-18s18 8.075 18 18h-3c0-8.271-6.729-15-15-15zm0 64c-1.103 0-2-.897-2-2h4c0 1.103-.897 2-2 2zm12-4h-24c-.551 0-1-.448-1-1s.449-1 1-1h24c.551 0 1 .448 1 1s-.449 1-1 1zm1-5c0 .552-.449 1-1 1h-24c-.551 0-1-.448-1-1s.449-1 1-1h24c.551 0 1 .448 1 1zm19-23c-.552 0-1 .447-1 1v5h-5c-1.654 0-3-1.346-3-3 0-.553-.448-1-1-1s-1 .447-1 1c0 2.757 2.243 5 5 5h5v2c0 1.654-1.346 3-3 3h-16.941c-.269 0-.585.168-.773.36-.183.187-.286.438-.286.7v5.94h-7v-18.586l7.086-7.086c.581-.581.914-1.384.914-2.207 0-1.72-1.4-3.121-3.121-3.121-.834 0-1.618.324-2.207.914-1.515 1.516-3.529 2.35-5.672 2.35s-4.157-.834-5.672-2.35c-.589-.59-1.373-.914-2.207-.914-1.721 0-3.121 1.401-3.121 3.121 0 .822.333 1.626.914 2.207l7.086 7.086v15.586c0 .553.448 1 1 1s1-.447 1-1v-16c0-.266-.105-.52-.293-.707l-7.379-7.379c-.208-.209-.328-.498-.328-.793 0-.618.503-1.121 1.121-1.121.3 0 .581.116.793.328 1.893 1.893 4.409 2.936 7.086 2.936s5.193-1.043 7.086-2.936c.212-.212.493-.328.793-.328.618 0 1.121.503 1.121 1.121 0 .295-.12.584-.328.793l-7.379 7.379c-.187.188-.293.442-.293.707v19h-11v-5.94c0-.42-.262-.795-.656-.939-11.853-4.339-19.895-15.561-20.305-28.121h43.961v16c0 .266.105.52.293.707l2.707 2.707v5.586c0 .553.448 1 1 1s1-.447 1-1v-6c0-.266-.105-.52-.293-.707l-2.707-2.707v-15.586h16v3c0 .203.062.402.178.569l7.913 11.431z"/><path d="m62.23 51.362c-.876 1.056-2.023 1.638-3.23 1.638s-2.354-.582-3.23-1.639c-.352-.424-.983-.484-1.408-.131s-.484.982-.132 1.408c1.263 1.523 2.957 2.362 4.77 2.362s3.507-.839 4.77-2.361c.353-.426.293-1.056-.132-1.408-.424-.354-1.054-.294-1.408.131z"/><path d="m82 46h-2v-2c0-.553-.448-1-1-1s-1 .447-1 1v2h-2c-.552 0-1 .447-1 1s.448 1 1 1h2v2c0 .553.448 1 1 1s1-.447 1-1v-2h2c.552 0 1-.447 1-1s-.448-1-1-1z"/><path d="m91 53h-2v-2c0-.553-.448-1-1-1s-1 .447-1 1v2h-2c-.552 0-1 .447-1 1s.448 1 1 1h2v2c0 .553.448 1 1 1s1-.447 1-1v-2h2c.552 0 1-.447 1-1s-.448-1-1-1z"/></svg>