<svg id="Capa_1" enable-background="new 0 0 512 512" height="512" viewBox="0 0 512 512" width="512" xmlns="http://www.w3.org/2000/svg"><g><g><g><path d="m476.292 202.908c-.755.755-1.76 1.171-2.829 1.171s-2.073-.416-2.829-1.171l-12.324-12.324c-1.126-1.126-2.628-1.747-4.23-1.747-.965 0-1.932.235-2.797.679-3.14 1.613-6.423 2.977-9.757 4.054-2.514.812-4.203 3.11-4.203 5.719v17.417c0 2.206-1.794 4-4 4h-23.915c-2.206 0-4-1.794-4-4v-17.417c0-2.609-1.689-4.908-4.203-5.719-3.334-1.076-6.617-2.44-9.758-4.054-.865-.444-1.832-.679-2.797-.679-1.602 0-3.104.62-4.23 1.747l-12.324 12.324c-.755.755-1.76 1.171-2.829 1.171s-2.073-.416-2.829-1.171l-16.91-16.911c-1.56-1.56-1.56-4.098 0-5.657l4.005-4.004h-222.185l-1.03.665v288.993l1.03 5.572h332.699c8.534 0 15.453-6.919 15.453-15.453v-256.414z" fill="#e8edf2"/></g><path d="m177.756 456.112v-278.776h-46.407v294.229h61.86c-8.535 0-15.453-6.919-15.453-15.453z" fill="#d9e7ec"/><path d="m131.348 369.033v-192.698h-122.781l-8.567 1.001v190.697l4.243 1z" fill="#b6c4cf"/><g><path d="m0 177.336h47.903v190.697h-47.903z" fill="#9facba"/></g><g><path d="m131.348 471.565h-115.895c-8.535 0-15.453-6.919-15.453-15.453v-88.079h131.348z" fill="#596c76"/></g><g><path d="m47.903 456.112v-88.079h-47.903v88.079c0 8.534 6.918 15.453 15.453 15.453h47.903c-8.534 0-15.453-6.919-15.453-15.453z" fill="#465a61"/></g><g><path d="m98.382 215.855h-65.416c-4.142 0-7.5-3.358-7.5-7.5s3.358-7.5 7.5-7.5h65.417c4.142 0 7.5 3.358 7.5 7.5s-3.359 7.5-7.501 7.5z" fill="#596c76"/></g><g><path d="m98.382 243.67h-65.416c-4.142 0-7.5-3.358-7.5-7.5s3.358-7.5 7.5-7.5h65.417c4.142 0 7.5 3.358 7.5 7.5s-3.359 7.5-7.501 7.5z" fill="#596c76"/></g><g><path d="m98.382 271.485h-65.416c-4.142 0-7.5-3.358-7.5-7.5s3.358-7.5 7.5-7.5h65.417c4.142 0 7.5 3.358 7.5 7.5s-3.359 7.5-7.501 7.5z" fill="#596c76"/></g><g><g><path d="m98.382 317.843h-65.416c-4.142 0-7.5-3.358-7.5-7.5s3.358-7.5 7.5-7.5h65.417c4.142 0 7.5 3.358 7.5 7.5s-3.359 7.5-7.501 7.5z" fill="#596c76"/></g><g><path d="m98.382 345.658h-65.416c-4.142 0-7.5-3.358-7.5-7.5s3.358-7.5 7.5-7.5h65.417c4.142 0 7.5 3.358 7.5 7.5s-3.359 7.5-7.501 7.5z" fill="#596c76"/></g></g><g><g><path d="m432.676 421.087h-259.691c-7.112 0-12.877-5.765-12.877-12.877 0-7.112 5.765-12.877 12.877-12.877h259.691c7.112 0 12.877 5.765 12.877 12.877 0 7.112-5.765 12.877-12.877 12.877z" fill="#00c27a"/></g></g><g><path d="m192.043 408.21c0-7.112 5.765-12.877 12.877-12.877h-31.936c-7.112 0-12.877 5.765-12.877 12.877 0 7.112 5.765 12.877 12.877 12.877h31.936c-7.112 0-12.877-5.765-12.877-12.877z" fill="#08b865"/></g><g><g><path d="m331.203 348.748h-168.95c-4.142 0-7.5-3.358-7.5-7.5s3.358-7.5 7.5-7.5h168.95c4.142 0 7.5 3.358 7.5 7.5s-3.358 7.5-7.5 7.5z" fill="#7a8c98"/></g></g><g><g><circle cx="33.924" cy="403.574" fill="#7a8c98" r="7.5"/></g><g><circle cx="97.424" cy="403.574" fill="#7a8c98" r="7.5"/></g></g><g><g><circle cx="33.924" cy="434.48" fill="#7a8c98" r="7.5"/></g><g><circle cx="97.424" cy="434.48" fill="#7a8c98" r="7.5"/></g></g><g><g><path d="m331.203 288.998h-168.95c-4.142 0-7.5-3.358-7.5-7.5s3.358-7.5 7.5-7.5h168.95c4.142 0 7.5 3.358 7.5 7.5s-3.358 7.5-7.5 7.5z" fill="#7a8c98"/></g></g><g><g><path d="m415.648 338.158c0-7.969 6.483-14.453 14.453-14.453v-1h-41.207c-8.534 0-15.453 6.918-15.453 15.453s6.918 15.453 15.453 15.453h41.207v-1c-7.97-.001-14.453-6.484-14.453-14.453z" fill="#00c27a"/><g><path d="m395.074 338.158c0-8.534 6.918-15.453 15.453-15.453h-21.634c-8.534 0-15.453 6.919-15.453 15.453 0 8.534 6.918 15.453 15.453 15.453h21.634c-8.534-.001-15.453-6.919-15.453-15.453z" fill="#08b865"/></g><g><circle cx="430.101" cy="338.158" fill="#7a8c98" r="15.453"/></g><path d="m425.821 338.158c0-6.56 4.094-12.151 9.861-14.394-1.732-.677-3.61-1.059-5.582-1.059-8.534 0-15.453 6.919-15.453 15.453s6.918 15.453 15.453 15.453c1.972 0 3.85-.382 5.582-1.059-5.767-2.243-9.861-7.834-9.861-14.394z" fill="#596c76"/></g><g><path d="m445.553 278.407c0-8.534-6.918-15.453-15.453-15.453h-41.207v1c7.969 0 14.453 6.483 14.453 14.453s-6.483 14.453-14.453 14.453v1h41.207c8.535 0 15.453-6.918 15.453-15.453z" fill="#00c27a"/><g><circle cx="388.893" cy="278.407" fill="#7a8c98" r="15.453"/></g><path d="m384.614 278.407c0-6.56 4.094-12.151 9.861-14.394-1.732-.677-3.61-1.059-5.582-1.059-8.534 0-15.453 6.919-15.453 15.453s6.918 15.453 15.453 15.453c1.972 0 3.85-.382 5.582-1.059-5.767-2.243-9.861-7.834-9.861-14.394z" fill="#596c76"/></g></g><g><g><path d="m253.939 229.247h-91.686c-4.142 0-7.5-3.358-7.5-7.5s3.358-7.5 7.5-7.5h91.686c4.142 0 7.5 3.358 7.5 7.5s-3.357 7.5-7.5 7.5z" fill="#7a8c98"/></g></g><g><path d="m238.487 424.693h-23.694c-2.845 0-5.151-2.306-5.151-5.151v-23.694c0-2.845 2.306-5.151 5.151-5.151h23.694c2.845 0 5.151 2.306 5.151 5.151v23.694c0 2.845-2.306 5.151-5.151 5.151z" fill="#7a8c98"/></g><g><path d="m225.095 419.542v-23.694c0-2.845 2.306-5.151 5.151-5.151h-15.453c-2.845 0-5.151 2.306-5.151 5.151v23.694c0 2.845 2.306 5.151 5.151 5.151h15.453c-2.845 0-5.151-2.306-5.151-5.151z" fill="#596c76"/></g><g><g><circle cx="65.674" cy="403.574" fill="#7a8c98" r="7.5"/></g><g><circle cx="65.674" cy="434.48" fill="#7a8c98" r="7.5"/></g></g></g><g><path d="m361.852 168.017c1.849-1.848 2.277-4.672 1.067-7.028-1.612-3.139-2.977-6.422-4.054-9.757-.812-2.514-3.11-4.203-5.719-4.203h-17.417c-2.206 0-4-1.794-4-4v-23.915c0-.193.03-.378.057-.564h-316.333c-8.535 0-15.453 6.918-15.453 15.452v43.333h352.532z" fill="#fd4755"/><g><path d="m63.356 118.55h-47.903c-8.535 0-15.453 6.918-15.453 15.452v43.334h47.903v-43.334c0-8.534 6.919-15.452 15.453-15.452z" fill="#fb2b3a"/></g><g><g><circle cx="31.69" cy="147.943" fill="#fe646f" r="7.5"/></g><g><circle cx="57.69" cy="147.943" fill="#fed402" r="7.5"/></g><g><circle cx="83.69" cy="147.943" fill="#00c27a" r="7.5"/></g></g></g><g><g><path d="m512 143.028v-23.915c0-2.761-2.239-5-5-5h-17.416c-2.187 0-4.096-1.429-4.768-3.51-1.109-3.433-2.49-6.743-4.116-9.908-1.001-1.949-.664-4.314.885-5.863l12.324-12.324c1.953-1.953 1.953-5.118 0-7.071l-16.91-16.911c-1.953-1.953-5.118-1.953-7.071 0l-12.325 12.324c-1.549 1.549-3.914 1.886-5.863.885-3.164-1.626-6.474-3.007-9.908-4.116-2.081-.672-3.51-2.581-3.51-4.768v-17.416c0-2.761-2.239-5-5-5h-23.915c-2.761 0-5 2.239-5 5v17.416c0 2.187-1.429 4.096-3.51 4.768-3.433 1.109-6.743 2.49-9.908 4.116-1.949 1.001-4.314.664-5.863-.885l-12.324-12.324c-1.953-1.953-5.118-1.953-7.071 0l-16.91 16.911c-1.953 1.953-1.953 5.118 0 7.071l12.324 12.324c1.549 1.549 1.886 3.914.885 5.863-1.626 3.165-3.007 6.475-4.116 9.908-.672 2.081-2.581 3.51-4.768 3.51h-17.416c-2.761 0-5 2.239-5 5v23.915c0 2.761 2.239 5 5 5h17.417c2.187 0 4.096 1.429 4.768 3.51 1.109 3.433 2.49 6.743 4.116 9.908 1.001 1.949.664 4.314-.885 5.863l-12.324 12.323c-1.953 1.953-1.953 5.118 0 7.071l16.91 16.911c1.953 1.953 5.118 1.953 7.071 0l12.324-12.324c1.549-1.549 3.914-1.886 5.863-.885 3.164 1.626 6.474 3.007 9.908 4.116 2.081.672 3.51 2.581 3.51 4.768v17.417c0 2.761 2.239 5 5 5h23.915c2.761 0 5-2.239 5-5v-17.417c0-2.187 1.429-4.096 3.51-4.768 3.433-1.109 6.743-2.49 9.908-4.116 1.949-1.001 4.314-.664 5.863.885l12.324 12.324c1.953 1.953 5.118 1.953 7.071 0l16.91-16.911c1.953-1.953 1.953-5.118 0-7.071l-12.324-12.323c-1.549-1.549-1.886-3.915-.885-5.863 1.626-3.164 3.007-6.474 4.116-9.908.672-2.081 2.581-3.51 4.768-3.51h17.416c2.761 0 5-2.238 5-5z" fill="#b6c4cf"/></g><path d="m388.017 151.903c-3.782-6.042-5.976-13.179-5.976-20.833s2.194-14.791 5.976-20.833c7.371-23.017 26.624-40.715 50.544-45.883-.152-.477-.239-.982-.239-1.504v-17.415c0-2.761-2.239-5-5-5h-23.915c-2.761 0-5 2.239-5 5v17.416c0 2.187-1.429 4.096-3.51 4.768-3.433 1.109-6.743 2.49-9.908 4.116-1.949 1.001-4.314.664-5.863-.885l-12.324-12.324c-1.953-1.953-5.119-1.953-7.071 0l-16.91 16.911c-1.953 1.953-1.953 5.118 0 7.071l12.324 12.324c1.549 1.549 1.886 3.914.885 5.863-1.626 3.165-3.007 6.475-4.116 9.908-.672 2.081-2.581 3.51-4.768 3.51h-17.416c-2.761 0-5 2.239-5 5v23.915c0 2.761 2.239 5 5 5h17.417c2.187 0 4.096 1.429 4.768 3.51 1.109 3.433 2.49 6.743 4.116 9.907 1.001 1.949.664 4.314-.885 5.863l-12.324 12.323c-1.953 1.953-1.953 5.118 0 7.071l16.91 16.911c1.953 1.953 5.118 1.953 7.071 0l12.324-12.324c1.549-1.549 3.914-1.886 5.863-.885 3.164 1.626 6.474 3.007 9.908 4.116 2.081.672 3.51 2.581 3.51 4.768v17.417c0 2.761 2.239 5 5 5h23.915c2.761 0 5-2.239 5-5v-17.417c0-.522.086-1.026.238-1.503-23.921-5.167-43.173-22.865-50.544-45.882z" fill="#9facba"/><g><circle cx="421.365" cy="131.071" fill="#8d9ca8" r="39.324"/></g><g><path d="m402.962 131.071c0-18.094 12.225-33.324 28.864-37.906-3.332-.918-6.837-1.418-10.461-1.418-21.718 0-39.324 17.606-39.324 39.324s17.606 39.324 39.324 39.324c3.624 0 7.129-.5 10.461-1.418-16.639-4.582-28.864-19.812-28.864-37.906z" fill="#7a8c98"/></g><g><circle cx="421.365" cy="131.071" fill="#465a61" r="13.28"/></g></g></g></svg>